{
	"asset":{
		"generator":"Khronos glTF Blender I/O v4.2.69",
		"version":"2.0"
	},
	"scene":0,
	"scenes":[
		{
			"name":"Scene",
			"nodes":[
				28
			]
		}
	],
	"nodes":[
		{
			"mesh":0,
			"name":"Face1_Material.006_0"
		},
		{
			"children":[
				0
			],
			"name":"Face1",
			"rotation":[
				-0.70710688829422,
				0,
				0,
				0.7071066498756409
			],
			"scale":[
				100,
				100,
				100
			]
		},
		{
			"mesh":1,
			"name":"Face1Cross_Material.007_0"
		},
		{
			"children":[
				2
			],
			"name":"Face1Cross",
			"rotation":[
				-0.70710688829422,
				0,
				0,
				0.7071066498756409
			],
			"scale":[
				100,
				100,
				100
			]
		},
		{
			"mesh":2,
			"name":"Face2_Material.006_0"
		},
		{
			"children":[
				4
			],
			"name":"Face2",
			"rotation":[
				-0.70710688829422,
				0,
				0,
				0.7071066498756409
			],
			"scale":[
				100,
				100,
				100
			]
		},
		{
			"mesh":3,
			"name":"Face2Cross_Material.007_0"
		},
		{
			"children":[
				6
			],
			"name":"Face2Cross",
			"rotation":[
				-0.70710688829422,
				0,
				0,
				0.7071066498756409
			],
			"scale":[
				100,
				100,
				100
			]
		},
		{
			"mesh":4,
			"name":"Face3_Material.006_0"
		},
		{
			"children":[
				8
			],
			"name":"Face3",
			"rotation":[
				-0.70710688829422,
				0,
				0,
				0.7071066498756409
			],
			"scale":[
				100,
				100,
				100
			]
		},
		{
			"mesh":5,
			"name":"Face3Cross_Material.007_0"
		},
		{
			"children":[
				10
			],
			"name":"Face3Cross",
			"rotation":[
				-0.70710688829422,
				0,
				0,
				0.7071066498756409
			],
			"scale":[
				100,
				100,
				100
			]
		},
		{
			"mesh":6,
			"name":"Face4_Material.006_0"
		},
		{
			"children":[
				12
			],
			"name":"Face4",
			"rotation":[
				-0.70710688829422,
				0,
				0,
				0.7071066498756409
			],
			"scale":[
				100,
				100,
				100
			]
		},
		{
			"mesh":7,
			"name":"Face4Cross_Material.007_0"
		},
		{
			"children":[
				14
			],
			"name":"Face4Cross",
			"rotation":[
				-0.70710688829422,
				0,
				0,
				0.7071066498756409
			],
			"scale":[
				100,
				100,
				100
			]
		},
		{
			"mesh":8,
			"name":"Face5_Material.006_0"
		},
		{
			"children":[
				16
			],
			"name":"Face5",
			"rotation":[
				-0.70710688829422,
				0,
				0,
				0.7071066498756409
			],
			"scale":[
				100,
				100,
				100
			]
		},
		{
			"mesh":9,
			"name":"Face5Cross_Material.007_0"
		},
		{
			"children":[
				18
			],
			"name":"Face5Cross",
			"rotation":[
				-0.70710688829422,
				0,
				0,
				0.7071066498756409
			],
			"scale":[
				100,
				100,
				100
			]
		},
		{
			"mesh":10,
			"name":"Face6_Material.006_0"
		},
		{
			"children":[
				20
			],
			"name":"Face6",
			"rotation":[
				-0.70710688829422,
				0,
				0,
				0.7071066498756409
			],
			"scale":[
				100,
				100,
				100
			]
		},
		{
			"mesh":11,
			"name":"Face6Cross_Material.007_0"
		},
		{
			"children":[
				22
			],
			"name":"Face6Cross",
			"rotation":[
				-0.70710688829422,
				0,
				0,
				0.7071066498756409
			],
			"scale":[
				100,
				100,
				100
			]
		},
		{
			"mesh":12,
			"name":"Frame_Material.007_0"
		},
		{
			"children":[
				24
			],
			"name":"Frame",
			"rotation":[
				-0.70710688829422,
				0,
				0,
				0.7071066498756409
			],
			"scale":[
				100,
				100,
				100
			]
		},
		{
			"children":[
				1,
				3,
				5,
				7,
				9,
				11,
				13,
				15,
				17,
				19,
				21,
				23,
				25
			],
			"name":"RootNode"
		},
		{
			"children":[
				26
			],
			"name":"6a2777b9b43b4ab8800b3ae74702c615.fbx",
			"rotation":[
				0.70710688829422,
				0,
				0,
				0.7071066498756409
			],
			"scale":[
				0.009999998845160007,
				0.009999999776482582,
				0.010000000707805157
			]
		},
		{
			"children":[
				27
			],
			"name":"box",
			"rotation":[
				-0.5024901628494263,
				0.49749746918678284,
				0.49749746918678284,
				0.5024901628494263
			],
			"scale":[
				0.31908732652664185,
				0.31908732652664185,
				0.31908732652664185
			],
			"translation":[
				0,
				0.3114379048347473,
				0
			]
		}
	],
	"materials":[
		{
			"doubleSided":true,
			"name":"Material.011",
			"pbrMetallicRoughness":{
				"baseColorFactor":[
					0.19370199739933014,
					0.07390139997005463,
					0.004207849968224764,
					1
				],
				"metallicFactor":0,
				"roughnessFactor":0.9789051413536072
			}
		},
		{
			"doubleSided":true,
			"name":"Material.010",
			"pbrMetallicRoughness":{
				"baseColorFactor":[
					0.10183499753475189,
					0.03200539946556091,
					0.007437270134687424,
					1
				],
				"metallicFactor":0,
				"roughnessFactor":0.9899203777313232
			}
		}
	],
	"meshes":[
		{
			"name":"Face1_Material.006_0",
			"primitives":[
				{
					"attributes":{
						"POSITION":0,
						"NORMAL":1,
						"TEXCOORD_0":2
					},
					"indices":3,
					"material":0
				}
			]
		},
		{
			"name":"Face1Cross_Material.007_0",
			"primitives":[
				{
					"attributes":{
						"POSITION":4,
						"NORMAL":5,
						"TEXCOORD_0":6
					},
					"indices":7,
					"material":1
				}
			]
		},
		{
			"name":"Face2_Material.006_0",
			"primitives":[
				{
					"attributes":{
						"POSITION":8,
						"NORMAL":9,
						"TEXCOORD_0":10
					},
					"indices":11,
					"material":0
				}
			]
		},
		{
			"name":"Face2Cross_Material.007_0",
			"primitives":[
				{
					"attributes":{
						"POSITION":12,
						"NORMAL":13,
						"TEXCOORD_0":14
					},
					"indices":15,
					"material":1
				}
			]
		},
		{
			"name":"Face3_Material.006_0",
			"primitives":[
				{
					"attributes":{
						"POSITION":16,
						"NORMAL":17,
						"TEXCOORD_0":18
					},
					"indices":19,
					"material":0
				}
			]
		},
		{
			"name":"Face3Cross_Material.007_0",
			"primitives":[
				{
					"attributes":{
						"POSITION":20,
						"NORMAL":21,
						"TEXCOORD_0":22
					},
					"indices":23,
					"material":1
				}
			]
		},
		{
			"name":"Face4_Material.006_0",
			"primitives":[
				{
					"attributes":{
						"POSITION":24,
						"NORMAL":25,
						"TEXCOORD_0":26
					},
					"indices":27,
					"material":0
				}
			]
		},
		{
			"name":"Face4Cross_Material.007_0",
			"primitives":[
				{
					"attributes":{
						"POSITION":28,
						"NORMAL":29,
						"TEXCOORD_0":30
					},
					"indices":31,
					"material":1
				}
			]
		},
		{
			"name":"Face5_Material.006_0",
			"primitives":[
				{
					"attributes":{
						"POSITION":32,
						"NORMAL":33,
						"TEXCOORD_0":34
					},
					"indices":19,
					"material":0
				}
			]
		},
		{
			"name":"Face5Cross_Material.007_0",
			"primitives":[
				{
					"attributes":{
						"POSITION":35,
						"NORMAL":36,
						"TEXCOORD_0":37
					},
					"indices":38,
					"material":1
				}
			]
		},
		{
			"name":"Face6_Material.006_0",
			"primitives":[
				{
					"attributes":{
						"POSITION":39,
						"NORMAL":40,
						"TEXCOORD_0":41
					},
					"indices":3,
					"material":0
				}
			]
		},
		{
			"name":"Face6Cross_Material.007_0",
			"primitives":[
				{
					"attributes":{
						"POSITION":42,
						"NORMAL":43,
						"TEXCOORD_0":44
					},
					"indices":45,
					"material":1
				}
			]
		},
		{
			"name":"Frame_Material.007_0",
			"primitives":[
				{
					"attributes":{
						"POSITION":46,
						"NORMAL":47,
						"TEXCOORD_0":48
					},
					"indices":49,
					"material":1
				}
			]
		}
	],
	"accessors":[
		{
			"bufferView":0,
			"componentType":5126,
			"count":16,
			"max":[
				0.8999999761581421,
				0.75,
				0.75
			],
			"min":[
				0.8999999761581421,
				-0.75,
				-0.75
			],
			"type":"VEC3"
		},
		{
			"bufferView":1,
			"componentType":5126,
			"count":16,
			"type":"VEC3"
		},
		{
			"bufferView":2,
			"componentType":5126,
			"count":16,
			"type":"VEC2"
		},
		{
			"bufferView":3,
			"componentType":5123,
			"count":54,
			"type":"SCALAR"
		},
		{
			"bufferView":4,
			"componentType":5126,
			"count":28,
			"max":[
				0.9691263437271118,
				0.9265507459640503,
				0.75
			],
			"min":[
				0.872262179851532,
				-0.9447309970855713,
				-0.9265507459640503
			],
			"type":"VEC3"
		},
		{
			"bufferView":5,
			"componentType":5126,
			"count":28,
			"type":"VEC3"
		},
		{
			"bufferView":6,
			"componentType":5126,
			"count":28,
			"type":"VEC2"
		},
		{
			"bufferView":7,
			"componentType":5123,
			"count":48,
			"type":"SCALAR"
		},
		{
			"bufferView":8,
			"componentType":5126,
			"count":16,
			"max":[
				0.75,
				0.75,
				-0.8999999761581421
			],
			"min":[
				-0.75,
				-0.75,
				-0.8999999761581421
			],
			"type":"VEC3"
		},
		{
			"bufferView":9,
			"componentType":5126,
			"count":16,
			"type":"VEC3"
		},
		{
			"bufferView":10,
			"componentType":5126,
			"count":16,
			"type":"VEC2"
		},
		{
			"bufferView":11,
			"componentType":5123,
			"count":54,
			"type":"SCALAR"
		},
		{
			"bufferView":12,
			"componentType":5126,
			"count":28,
			"max":[
				0.9205549955368042,
				0.75,
				-0.8620503544807434
			],
			"min":[
				-0.9619827270507812,
				-0.9619827270507812,
				-0.9691263437271118
			],
			"type":"VEC3"
		},
		{
			"bufferView":13,
			"componentType":5126,
			"count":28,
			"type":"VEC3"
		},
		{
			"bufferView":14,
			"componentType":5126,
			"count":28,
			"type":"VEC2"
		},
		{
			"bufferView":15,
			"componentType":5123,
			"count":48,
			"type":"SCALAR"
		},
		{
			"bufferView":16,
			"componentType":5126,
			"count":16,
			"max":[
				-0.8999999761581421,
				0.75,
				0.75
			],
			"min":[
				-0.8999999761581421,
				-0.75,
				-0.75
			],
			"type":"VEC3"
		},
		{
			"bufferView":17,
			"componentType":5126,
			"count":16,
			"type":"VEC3"
		},
		{
			"bufferView":18,
			"componentType":5126,
			"count":16,
			"type":"VEC2"
		},
		{
			"bufferView":19,
			"componentType":5123,
			"count":54,
			"type":"SCALAR"
		},
		{
			"bufferView":20,
			"componentType":5126,
			"count":24,
			"max":[
				-0.8844730854034424,
				0.9310801029205322,
				0.75
			],
			"min":[
				-0.9691263437271118,
				-0.9344332218170166,
				-0.9310801029205322
			],
			"type":"VEC3"
		},
		{
			"bufferView":21,
			"componentType":5126,
			"count":24,
			"type":"VEC3"
		},
		{
			"bufferView":22,
			"componentType":5126,
			"count":24,
			"type":"VEC2"
		},
		{
			"bufferView":23,
			"componentType":5123,
			"count":42,
			"type":"SCALAR"
		},
		{
			"bufferView":24,
			"componentType":5126,
			"count":16,
			"max":[
				0.75,
				0.75,
				0.8999999761581421
			],
			"min":[
				-0.75,
				-0.75,
				0.8999999761581421
			],
			"type":"VEC3"
		},
		{
			"bufferView":25,
			"componentType":5126,
			"count":16,
			"type":"VEC3"
		},
		{
			"bufferView":26,
			"componentType":5126,
			"count":16,
			"type":"VEC2"
		},
		{
			"bufferView":27,
			"componentType":5123,
			"count":54,
			"type":"SCALAR"
		},
		{
			"bufferView":28,
			"componentType":5126,
			"count":28,
			"max":[
				0.9215551614761353,
				0.75,
				0.9691263437271118
			],
			"min":[
				-0.9313510656356812,
				-0.9449926614761353,
				0.8819282650947571
			],
			"type":"VEC3"
		},
		{
			"bufferView":29,
			"componentType":5126,
			"count":28,
			"type":"VEC3"
		},
		{
			"bufferView":30,
			"componentType":5126,
			"count":28,
			"type":"VEC2"
		},
		{
			"bufferView":31,
			"componentType":5123,
			"count":48,
			"type":"SCALAR"
		},
		{
			"bufferView":32,
			"componentType":5126,
			"count":16,
			"max":[
				0.75,
				0.8999999761581421,
				0.75
			],
			"min":[
				-0.75,
				0.8999999761581421,
				-0.75
			],
			"type":"VEC3"
		},
		{
			"bufferView":33,
			"componentType":5126,
			"count":16,
			"type":"VEC3"
		},
		{
			"bufferView":34,
			"componentType":5126,
			"count":16,
			"type":"VEC2"
		},
		{
			"bufferView":35,
			"componentType":5126,
			"count":28,
			"max":[
				0.889532208442688,
				0.9691263437271118,
				0.75
			],
			"min":[
				-0.9251383543014526,
				0.8864231705665588,
				-0.9017008543014526
			],
			"type":"VEC3"
		},
		{
			"bufferView":36,
			"componentType":5126,
			"count":28,
			"type":"VEC3"
		},
		{
			"bufferView":37,
			"componentType":5126,
			"count":28,
			"type":"VEC2"
		},
		{
			"bufferView":38,
			"componentType":5123,
			"count":48,
			"type":"SCALAR"
		},
		{
			"bufferView":39,
			"componentType":5126,
			"count":16,
			"max":[
				0.75,
				-0.8999999761581421,
				0.75
			],
			"min":[
				-0.75,
				-0.8999999761581421,
				-0.75
			],
			"type":"VEC3"
		},
		{
			"bufferView":40,
			"componentType":5126,
			"count":16,
			"type":"VEC3"
		},
		{
			"bufferView":41,
			"componentType":5126,
			"count":16,
			"type":"VEC2"
		},
		{
			"bufferView":42,
			"componentType":5126,
			"count":28,
			"max":[
				0.9481656551361084,
				-0.887913703918457,
				0.75
			],
			"min":[
				-0.9207919836044312,
				-0.9691263437271118,
				-0.9481656551361084
			],
			"type":"VEC3"
		},
		{
			"bufferView":43,
			"componentType":5126,
			"count":28,
			"type":"VEC3"
		},
		{
			"bufferView":44,
			"componentType":5126,
			"count":28,
			"type":"VEC2"
		},
		{
			"bufferView":45,
			"componentType":5123,
			"count":48,
			"type":"SCALAR"
		},
		{
			"bufferView":46,
			"componentType":5126,
			"count":724,
			"max":[
				1,
				1,
				1
			],
			"min":[
				-1,
				-1,
				-1
			],
			"type":"VEC3"
		},
		{
			"bufferView":47,
			"componentType":5126,
			"count":724,
			"type":"VEC3"
		},
		{
			"bufferView":48,
			"componentType":5126,
			"count":724,
			"type":"VEC2"
		},
		{
			"bufferView":49,
			"componentType":5123,
			"count":1878,
			"type":"SCALAR"
		}
	],
	"bufferViews":[
		{
			"buffer":0,
			"byteLength":192,
			"byteOffset":0,
			"target":34962
		},
		{
			"buffer":0,
			"byteLength":192,
			"byteOffset":192,
			"target":34962
		},
		{
			"buffer":0,
			"byteLength":128,
			"byteOffset":384,
			"target":34962
		},
		{
			"buffer":0,
			"byteLength":108,
			"byteOffset":512,
			"target":34963
		},
		{
			"buffer":0,
			"byteLength":336,
			"byteOffset":620,
			"target":34962
		},
		{
			"buffer":0,
			"byteLength":336,
			"byteOffset":956,
			"target":34962
		},
		{
			"buffer":0,
			"byteLength":224,
			"byteOffset":1292,
			"target":34962
		},
		{
			"buffer":0,
			"byteLength":96,
			"byteOffset":1516,
			"target":34963
		},
		{
			"buffer":0,
			"byteLength":192,
			"byteOffset":1612,
			"target":34962
		},
		{
			"buffer":0,
			"byteLength":192,
			"byteOffset":1804,
			"target":34962
		},
		{
			"buffer":0,
			"byteLength":128,
			"byteOffset":1996,
			"target":34962
		},
		{
			"buffer":0,
			"byteLength":108,
			"byteOffset":2124,
			"target":34963
		},
		{
			"buffer":0,
			"byteLength":336,
			"byteOffset":2232,
			"target":34962
		},
		{
			"buffer":0,
			"byteLength":336,
			"byteOffset":2568,
			"target":34962
		},
		{
			"buffer":0,
			"byteLength":224,
			"byteOffset":2904,
			"target":34962
		},
		{
			"buffer":0,
			"byteLength":96,
			"byteOffset":3128,
			"target":34963
		},
		{
			"buffer":0,
			"byteLength":192,
			"byteOffset":3224,
			"target":34962
		},
		{
			"buffer":0,
			"byteLength":192,
			"byteOffset":3416,
			"target":34962
		},
		{
			"buffer":0,
			"byteLength":128,
			"byteOffset":3608,
			"target":34962
		},
		{
			"buffer":0,
			"byteLength":108,
			"byteOffset":3736,
			"target":34963
		},
		{
			"buffer":0,
			"byteLength":288,
			"byteOffset":3844,
			"target":34962
		},
		{
			"buffer":0,
			"byteLength":288,
			"byteOffset":4132,
			"target":34962
		},
		{
			"buffer":0,
			"byteLength":192,
			"byteOffset":4420,
			"target":34962
		},
		{
			"buffer":0,
			"byteLength":84,
			"byteOffset":4612,
			"target":34963
		},
		{
			"buffer":0,
			"byteLength":192,
			"byteOffset":4696,
			"target":34962
		},
		{
			"buffer":0,
			"byteLength":192,
			"byteOffset":4888,
			"target":34962
		},
		{
			"buffer":0,
			"byteLength":128,
			"byteOffset":5080,
			"target":34962
		},
		{
			"buffer":0,
			"byteLength":108,
			"byteOffset":5208,
			"target":34963
		},
		{
			"buffer":0,
			"byteLength":336,
			"byteOffset":5316,
			"target":34962
		},
		{
			"buffer":0,
			"byteLength":336,
			"byteOffset":5652,
			"target":34962
		},
		{
			"buffer":0,
			"byteLength":224,
			"byteOffset":5988,
			"target":34962
		},
		{
			"buffer":0,
			"byteLength":96,
			"byteOffset":6212,
			"target":34963
		},
		{
			"buffer":0,
			"byteLength":192,
			"byteOffset":6308,
			"target":34962
		},
		{
			"buffer":0,
			"byteLength":192,
			"byteOffset":6500,
			"target":34962
		},
		{
			"buffer":0,
			"byteLength":128,
			"byteOffset":6692,
			"target":34962
		},
		{
			"buffer":0,
			"byteLength":336,
			"byteOffset":6820,
			"target":34962
		},
		{
			"buffer":0,
			"byteLength":336,
			"byteOffset":7156,
			"target":34962
		},
		{
			"buffer":0,
			"byteLength":224,
			"byteOffset":7492,
			"target":34962
		},
		{
			"buffer":0,
			"byteLength":96,
			"byteOffset":7716,
			"target":34963
		},
		{
			"buffer":0,
			"byteLength":192,
			"byteOffset":7812,
			"target":34962
		},
		{
			"buffer":0,
			"byteLength":192,
			"byteOffset":8004,
			"target":34962
		},
		{
			"buffer":0,
			"byteLength":128,
			"byteOffset":8196,
			"target":34962
		},
		{
			"buffer":0,
			"byteLength":336,
			"byteOffset":8324,
			"target":34962
		},
		{
			"buffer":0,
			"byteLength":336,
			"byteOffset":8660,
			"target":34962
		},
		{
			"buffer":0,
			"byteLength":224,
			"byteOffset":8996,
			"target":34962
		},
		{
			"buffer":0,
			"byteLength":96,
			"byteOffset":9220,
			"target":34963
		},
		{
			"buffer":0,
			"byteLength":8688,
			"byteOffset":9316,
			"target":34962
		},
		{
			"buffer":0,
			"byteLength":8688,
			"byteOffset":18004,
			"target":34962
		},
		{
			"buffer":0,
			"byteLength":5792,
			"byteOffset":26692,
			"target":34962
		},
		{
			"buffer":0,
			"byteLength":3756,
			"byteOffset":32484,
			"target":34963
		}
	],
	"buffers":[
		{
			"byteLength":36240,
			"uri":"untitled.bin"
		}
	]
}
