{
	"asset":{
		"generator":"Khronos glTF Blender I/O v4.2.69",
		"version":"2.0"
	},
	"extensionsUsed":[
		"KHR_materials_emissive_strength",
		"KHR_materials_specular",
		"KHR_materials_ior"
	],
	"scene":0,
	"scenes":[
		{
			"name":"Scene",
			"nodes":[
				9
			]
		}
	],
	"nodes":[
		{
			"mesh":0,
			"name":"Object_2"
		},
		{
			"mesh":1,
			"name":"Object_3"
		},
		{
			"mesh":2,
			"name":"Object_4"
		},
		{
			"mesh":3,
			"name":"Object_5"
		},
		{
			"mesh":4,
			"name":"Object_6"
		},
		{
			"mesh":5,
			"name":"Object_7"
		},
		{
			"mesh":6,
			"name":"Object_8"
		},
		{
			"mesh":7,
			"name":"Object_9"
		},
		{
			"children":[
				0,
				1,
				2,
				3,
				4,
				5,
				6,
				7
			],
			"name":"lowpoly car.obj.cleaner.materialmerger.gles"
		},
		{
			"children":[
				8
			],
			"name":"car",
			"rotation":[
				-0.70710688829422,
				0,
				0,
				0.7071066498756409
			],
			"scale":[
				0.23321335017681122,
				0.2332133799791336,
				0.2332133799791336
			],
			"translation":[
				0,
				-0.029012668877840042,
				0
			]
		}
	],
	"materials":[
		{
			"doubleSided":true,
			"extensions":{
				"KHR_materials_specular":{
					"specularColorFactor":[
						0.0,
						0.0,
						0.0
					]
				},
				"KHR_materials_ior":{
					"ior":1000
				}
			},
			"name":"Material.002",
			"pbrMetallicRoughness":{
				"baseColorFactor":[
					1,
					0.002145657781511545,
					0,
					1
				],
				"metallicFactor":0,
				"roughnessFactor":0.08380977809429169
			}
		},
		{
			"doubleSided":true,
			"emissiveFactor":[
				1,
				1,
				1
			],
			"extensions":{
				"KHR_materials_emissive_strength":{
					"emissiveStrength":10
				},
				"KHR_materials_specular":{
					"specularColorFactor":[
						0.0,
						0.0,
						0.0
					]
				},
				"KHR_materials_ior":{
					"ior":1000
				}
			},
			"name":"Material.003",
			"pbrMetallicRoughness":{
				"baseColorFactor":[
					0.800000011920929,
					0.800000011920929,
					0.800000011920929,
					1
				],
				"metallicFactor":0,
				"roughnessFactor":0.782206118106842
			}
		},
		{
			"doubleSided":true,
			"extensions":{
				"KHR_materials_specular":{
					"specularColorFactor":[
						0.0,
						0.0,
						0.0
					]
				},
				"KHR_materials_ior":{
					"ior":1000
				}
			},
			"name":"Material.004",
			"pbrMetallicRoughness":{
				"baseColorFactor":[
					0.03617599979043007,
					0.03617599979043007,
					0.03617599979043007,
					1
				],
				"metallicFactor":0
			}
		},
		{
			"doubleSided":true,
			"extensions":{
				"KHR_materials_specular":{
					"specularColorFactor":[
						0.0,
						0.0,
						0.0
					]
				},
				"KHR_materials_ior":{
					"ior":1000
				}
			},
			"name":"Material.005",
			"pbrMetallicRoughness":{
				"baseColorFactor":[
					0.19629700481891632,
					0.19629700481891632,
					0.19629700481891632,
					1
				],
				"metallicFactor":0,
				"roughnessFactor":0.7868925929069519
			}
		},
		{
			"doubleSided":true,
			"extensions":{
				"KHR_materials_specular":{
					"specularColorFactor":[
						0.0,
						0.0,
						0.0
					]
				},
				"KHR_materials_ior":{
					"ior":1000
				}
			},
			"name":"Material.006",
			"pbrMetallicRoughness":{
				"baseColorFactor":[
					0.28212299942970276,
					0.28212299942970276,
					0.28212299942970276,
					1
				],
				"metallicFactor":0,
				"roughnessFactor":0.718829333782196
			}
		},
		{
			"alphaMode":"BLEND",
			"doubleSided":true,
			"extensions":{
				"KHR_materials_specular":{
					"specularColorFactor":[
						0.0,
						0.0,
						0.0
					]
				},
				"KHR_materials_ior":{
					"ior":1000
				}
			},
			"name":"Material.007",
			"pbrMetallicRoughness":{
				"baseColorFactor":[
					0.3099299967288971,
					0.6630319952964783,
					0.8003389835357666,
					0.979812502861023
				],
				"metallicFactor":0,
				"roughnessFactor":0
			}
		},
		{
			"doubleSided":true,
			"extensions":{
				"KHR_materials_specular":{
					"specularColorFactor":[
						0.0,
						0.0,
						0.0
					]
				},
				"KHR_materials_ior":{
					"ior":1000
				}
			},
			"name":"Material.008",
			"pbrMetallicRoughness":{
				"baseColorFactor":[
					0,
					0,
					0,
					1
				],
				"metallicFactor":0
			}
		},
		{
			"doubleSided":true,
			"emissiveFactor":[
				1,
				0,
				0
			],
			"extensions":{
				"KHR_materials_emissive_strength":{
					"emissiveStrength":9.859077453613281
				},
				"KHR_materials_specular":{
					"specularColorFactor":[
						0.0,
						0.0,
						0.0
					]
				},
				"KHR_materials_ior":{
					"ior":1000
				}
			},
			"name":"Material.009",
			"pbrMetallicRoughness":{
				"baseColorFactor":[
					0.800000011920929,
					0.800000011920929,
					0.800000011920929,
					1
				],
				"metallicFactor":0,
				"roughnessFactor":0.782206118106842
			}
		}
	],
	"meshes":[
		{
			"name":"Object_0",
			"primitives":[
				{
					"attributes":{
						"POSITION":0,
						"NORMAL":1,
						"TEXCOORD_0":2
					},
					"indices":3,
					"material":0
				}
			]
		},
		{
			"name":"Object_1",
			"primitives":[
				{
					"attributes":{
						"POSITION":4,
						"NORMAL":5,
						"TEXCOORD_0":6
					},
					"indices":7,
					"material":1
				}
			]
		},
		{
			"name":"Object_2",
			"primitives":[
				{
					"attributes":{
						"POSITION":8,
						"NORMAL":9,
						"TEXCOORD_0":10
					},
					"indices":11,
					"material":2
				}
			]
		},
		{
			"name":"Object_3",
			"primitives":[
				{
					"attributes":{
						"POSITION":12,
						"NORMAL":13,
						"TEXCOORD_0":14
					},
					"indices":15,
					"material":3
				}
			]
		},
		{
			"name":"Object_4",
			"primitives":[
				{
					"attributes":{
						"POSITION":16,
						"NORMAL":17,
						"TEXCOORD_0":18
					},
					"indices":19,
					"material":4
				}
			]
		},
		{
			"name":"Object_5",
			"primitives":[
				{
					"attributes":{
						"POSITION":20,
						"NORMAL":21,
						"TEXCOORD_0":22
					},
					"indices":23,
					"material":5
				}
			]
		},
		{
			"name":"Object_6",
			"primitives":[
				{
					"attributes":{
						"POSITION":24,
						"NORMAL":25,
						"TEXCOORD_0":26
					},
					"indices":27,
					"material":6
				}
			]
		},
		{
			"name":"Object_7",
			"primitives":[
				{
					"attributes":{
						"POSITION":28,
						"NORMAL":29,
						"TEXCOORD_0":30
					},
					"indices":31,
					"material":7
				}
			]
		}
	],
	"accessors":[
		{
			"bufferView":0,
			"componentType":5126,
			"count":2728,
			"max":[
				1.3398170471191406,
				2.5045180320739746,
				1.685718059539795
			],
			"min":[
				-1.3398170471191406,
				-2.3310298919677734,
				0.28468701243400574
			],
			"type":"VEC3"
		},
		{
			"bufferView":1,
			"componentType":5126,
			"count":2728,
			"type":"VEC3"
		},
		{
			"bufferView":2,
			"componentType":5126,
			"count":2728,
			"type":"VEC2"
		},
		{
			"bufferView":3,
			"componentType":5123,
			"count":6936,
			"type":"SCALAR"
		},
		{
			"bufferView":4,
			"componentType":5126,
			"count":8,
			"max":[
				1.1077430248260498,
				-1.8335490226745605,
				0.9449160099029541
			],
			"min":[
				-1.1077439785003662,
				-2.2017149925231934,
				0.8122379779815674
			],
			"type":"VEC3"
		},
		{
			"bufferView":5,
			"componentType":5126,
			"count":8,
			"type":"VEC3"
		},
		{
			"bufferView":6,
			"componentType":5126,
			"count":8,
			"type":"VEC2"
		},
		{
			"bufferView":7,
			"componentType":5123,
			"count":12,
			"type":"SCALAR"
		},
		{
			"bufferView":8,
			"componentType":5126,
			"count":650,
			"max":[
				1.2044340372085571,
				1.8233369588851929,
				0.9251019954681396
			],
			"min":[
				-1.2044340372085571,
				-2.315885066986084,
				0.11600799858570099
			],
			"type":"VEC3"
		},
		{
			"bufferView":9,
			"componentType":5126,
			"count":650,
			"type":"VEC3"
		},
		{
			"bufferView":10,
			"componentType":5126,
			"count":650,
			"type":"VEC2"
		},
		{
			"bufferView":11,
			"componentType":5123,
			"count":1944,
			"type":"SCALAR"
		},
		{
			"bufferView":12,
			"componentType":5126,
			"count":3425,
			"max":[
				1.1645230054855347,
				2.4974989891052246,
				0.7215480208396912
			],
			"min":[
				-1.1645220518112183,
				-1.6216109991073608,
				0.28468701243400574
			],
			"type":"VEC3"
		},
		{
			"bufferView":13,
			"componentType":5126,
			"count":3425,
			"type":"VEC3"
		},
		{
			"bufferView":14,
			"componentType":5126,
			"count":3425,
			"type":"VEC2"
		},
		{
			"bufferView":15,
			"componentType":5123,
			"count":13644,
			"type":"SCALAR"
		},
		{
			"bufferView":16,
			"componentType":5126,
			"count":274,
			"max":[
				1.1645230054855347,
				1.654657006263733,
				0.7215480208396912
			],
			"min":[
				-1.1645220518112183,
				-1.6216109991073608,
				0.28468701243400574
			],
			"type":"VEC3"
		},
		{
			"bufferView":17,
			"componentType":5126,
			"count":274,
			"type":"VEC3"
		},
		{
			"bufferView":18,
			"componentType":5126,
			"count":274,
			"type":"VEC2"
		},
		{
			"bufferView":19,
			"componentType":5123,
			"count":384,
			"type":"SCALAR"
		},
		{
			"bufferView":20,
			"componentType":5126,
			"count":62,
			"max":[
				1.3350039720535278,
				1.7468470335006714,
				1.646239995956421
			],
			"min":[
				-1.3350030183792114,
				-0.7192299962043762,
				1.2011460065841675
			],
			"type":"VEC3"
		},
		{
			"bufferView":21,
			"componentType":5126,
			"count":62,
			"type":"VEC3"
		},
		{
			"bufferView":22,
			"componentType":5126,
			"count":62,
			"type":"VEC2"
		},
		{
			"bufferView":23,
			"componentType":5123,
			"count":156,
			"type":"SCALAR"
		},
		{
			"bufferView":24,
			"componentType":5126,
			"count":16,
			"max":[
				1.004699945449829,
				2.416313886642456,
				0.5888000130653381
			],
			"min":[
				-1.004701018333435,
				-2.1954588890075684,
				0.37026599049568176
			],
			"type":"VEC3"
		},
		{
			"bufferView":25,
			"componentType":5126,
			"count":16,
			"type":"VEC3"
		},
		{
			"bufferView":26,
			"componentType":5126,
			"count":16,
			"type":"VEC2"
		},
		{
			"bufferView":27,
			"componentType":5123,
			"count":24,
			"type":"SCALAR"
		},
		{
			"bufferView":28,
			"componentType":5126,
			"count":12,
			"max":[
				1.0551589727401733,
				2.4505341053009033,
				1.0038729906082153
			],
			"min":[
				-1.055156946182251,
				2.406810998916626,
				0.8052250146865845
			],
			"type":"VEC3"
		},
		{
			"bufferView":29,
			"componentType":5126,
			"count":12,
			"type":"VEC3"
		},
		{
			"bufferView":30,
			"componentType":5126,
			"count":12,
			"type":"VEC2"
		},
		{
			"bufferView":31,
			"componentType":5123,
			"count":24,
			"type":"SCALAR"
		}
	],
	"bufferViews":[
		{
			"buffer":0,
			"byteLength":32736,
			"byteOffset":0,
			"target":34962
		},
		{
			"buffer":0,
			"byteLength":32736,
			"byteOffset":32736,
			"target":34962
		},
		{
			"buffer":0,
			"byteLength":21824,
			"byteOffset":65472,
			"target":34962
		},
		{
			"buffer":0,
			"byteLength":13872,
			"byteOffset":87296,
			"target":34963
		},
		{
			"buffer":0,
			"byteLength":96,
			"byteOffset":101168,
			"target":34962
		},
		{
			"buffer":0,
			"byteLength":96,
			"byteOffset":101264,
			"target":34962
		},
		{
			"buffer":0,
			"byteLength":64,
			"byteOffset":101360,
			"target":34962
		},
		{
			"buffer":0,
			"byteLength":24,
			"byteOffset":101424,
			"target":34963
		},
		{
			"buffer":0,
			"byteLength":7800,
			"byteOffset":101448,
			"target":34962
		},
		{
			"buffer":0,
			"byteLength":7800,
			"byteOffset":109248,
			"target":34962
		},
		{
			"buffer":0,
			"byteLength":5200,
			"byteOffset":117048,
			"target":34962
		},
		{
			"buffer":0,
			"byteLength":3888,
			"byteOffset":122248,
			"target":34963
		},
		{
			"buffer":0,
			"byteLength":41100,
			"byteOffset":126136,
			"target":34962
		},
		{
			"buffer":0,
			"byteLength":41100,
			"byteOffset":167236,
			"target":34962
		},
		{
			"buffer":0,
			"byteLength":27400,
			"byteOffset":208336,
			"target":34962
		},
		{
			"buffer":0,
			"byteLength":27288,
			"byteOffset":235736,
			"target":34963
		},
		{
			"buffer":0,
			"byteLength":3288,
			"byteOffset":263024,
			"target":34962
		},
		{
			"buffer":0,
			"byteLength":3288,
			"byteOffset":266312,
			"target":34962
		},
		{
			"buffer":0,
			"byteLength":2192,
			"byteOffset":269600,
			"target":34962
		},
		{
			"buffer":0,
			"byteLength":768,
			"byteOffset":271792,
			"target":34963
		},
		{
			"buffer":0,
			"byteLength":744,
			"byteOffset":272560,
			"target":34962
		},
		{
			"buffer":0,
			"byteLength":744,
			"byteOffset":273304,
			"target":34962
		},
		{
			"buffer":0,
			"byteLength":496,
			"byteOffset":274048,
			"target":34962
		},
		{
			"buffer":0,
			"byteLength":312,
			"byteOffset":274544,
			"target":34963
		},
		{
			"buffer":0,
			"byteLength":192,
			"byteOffset":274856,
			"target":34962
		},
		{
			"buffer":0,
			"byteLength":192,
			"byteOffset":275048,
			"target":34962
		},
		{
			"buffer":0,
			"byteLength":128,
			"byteOffset":275240,
			"target":34962
		},
		{
			"buffer":0,
			"byteLength":48,
			"byteOffset":275368,
			"target":34963
		},
		{
			"buffer":0,
			"byteLength":144,
			"byteOffset":275416,
			"target":34962
		},
		{
			"buffer":0,
			"byteLength":144,
			"byteOffset":275560,
			"target":34962
		},
		{
			"buffer":0,
			"byteLength":96,
			"byteOffset":275704,
			"target":34962
		},
		{
			"buffer":0,
			"byteLength":48,
			"byteOffset":275800,
			"target":34963
		}
	],
	"buffers":[
		{
			"byteLength":275848,
			"uri":"untitled.bin"
		}
	]
}
